<svg width="100" height="100" viewBox="0 0 100 100" fill="none" xmlns="http://www.w3.org/2000/svg">
<path d="M0 20C0 8.9543 8.95431 0 20 0H80C91.0457 0 100 8.95431 100 20V80C100 91.0457 91.0457 100 80 100H20C8.9543 100 0 91.0457 0 80V20Z" fill="#75CEF6"/>
<g filter="url(#filter0_d_711_2)">
<path fill-rule="evenodd" clip-rule="evenodd" d="M60.3731 20.7376C62.6813 22.9591 63.5432 24.4979 64.0315 28.1736L64.1528 28.1979C64.1023 28.1999 64.0533 28.2001 64.0059 28.1984C64.0335 28.3362 64.1366 28.4748 64.2426 28.6171C64.3052 28.7011 64.3687 28.7864 64.4182 28.8736C64.6467 29.2783 64.7622 29.724 64.8651 30.1213C64.9937 30.6176 65.1028 31.0386 65.3882 31.21C66.5227 31.8841 67.7404 31.1032 68.5649 30.5746L68.6269 30.5348C68.988 30.3095 69.362 30.04 69.7605 29.7529L69.7606 29.7528C70.2215 29.4207 70.7153 29.0649 71.2601 28.7262C71.359 28.6634 71.4524 28.6024 71.5434 28.5429L71.5437 28.5427C71.8996 28.3102 72.2184 28.1018 72.6863 27.9036C72.8366 27.8398 72.9823 27.7777 73.1239 27.7174C75.6572 26.6376 76.8783 26.1172 80.0003 26.4775C80.4537 26.5308 80.8414 26.5595 81.194 26.5856C82.4998 26.6822 83.3235 26.7432 85.2228 27.8897C85.3844 27.9868 85.5617 28.0861 85.745 28.1888C86.5316 28.6294 87.4304 29.1327 87.6807 29.7998C88.1369 31.0049 87.9456 32.4888 87.2983 33.399C86.9501 33.8767 86.7708 34.1911 86.6255 34.446L86.6255 34.446C86.3594 34.9127 86.2073 35.1795 85.3403 35.8829C85.0506 36.1174 84.7965 36.4326 84.5005 36.7997C84.1655 37.2151 83.7771 37.6969 83.223 38.2033C81.0161 40.2031 80.0879 40.468 77.4109 41.201C76.1441 41.4082 74.7618 41.5994 73.4671 41.7169C71.7003 41.8782 71.1566 41.7906 69.5233 41.4381C68.3604 41.1857 67.4645 40.6037 66.6447 40.0712C65.743 39.4854 64.9334 38.9595 63.9621 38.9981C62.8231 39.0424 62.0609 39.718 61.1995 40.4816C60.3572 41.2283 59.42 42.0591 57.9428 42.4658C58.2973 42.8921 59.4287 42.6869 60.0322 42.4061C63.5498 44.4497 65.4918 41.8623 65.4918 41.8623L65.3882 42.906C65.3696 43.6834 65.1982 44.4742 65.0117 45.3351L65.0117 45.3351C64.9196 45.7602 64.8238 46.2024 64.7409 46.6686C64.6831 47.0107 64.5912 47.2775 64.4985 47.5465L64.4984 47.5466C64.4281 47.7505 64.3574 47.9558 64.3007 48.1963C64.1892 48.6211 64.0666 49.5236 63.9543 50.3504L63.9543 50.3505L63.9543 50.3508C63.8881 50.8381 63.8255 51.299 63.7709 51.6203C63.6595 52.2944 63.6009 53.0951 63.5435 53.8777L63.5435 53.8779V53.8779C63.5095 54.3415 63.476 54.7987 63.4323 55.2195C63.423 55.3054 63.4137 55.3927 63.4043 55.4813L63.4042 55.4824C63.2945 56.5145 63.168 57.7054 62.8287 58.5857C62.7396 58.8047 62.6376 59.0047 62.5346 59.2065C62.4166 59.4377 62.2974 59.6712 62.1953 59.9381C62.068 60.268 61.9554 60.6537 61.8468 61.0255L61.8468 61.0256L61.8466 61.026C61.8058 61.1658 61.7655 61.3037 61.7253 61.436C61.4711 62.2464 61.5234 63.6904 61.5618 64.751C61.568 64.9207 61.5738 65.0805 61.5779 65.2264C61.607 66.0581 61.4935 66.4275 61.4183 66.6724C61.3803 66.7959 61.3521 66.8877 61.3568 66.9912C61.3568 67.1052 61.4159 67.2377 61.4786 67.3785C61.5288 67.4909 61.5812 67.6085 61.6077 67.7262C61.6692 67.9453 61.6794 68.2074 61.6892 68.4582L61.6892 68.4587C61.6912 68.5086 61.6931 68.558 61.6954 68.6065C61.7257 69.2669 61.8262 69.3657 62.0267 69.5625C62.1164 69.6506 62.2262 69.7584 62.3587 69.945C63.2849 71.2377 63.7988 72.5304 63.992 74.2494C64.0796 75.072 64.0497 77.3068 63.8725 78.0856C63.6235 79.217 62.9164 79.7309 62.0639 80.2149C60.9047 80.8842 60.0049 81.1257 59.3063 81.2298C59.0075 81.2743 58.7455 81.2937 58.5158 81.3107L58.5155 81.3108C58.0551 81.3448 57.7243 81.3693 57.4867 81.5673C57.3805 81.6538 57.2912 81.7329 57.2063 81.8081C57.1231 81.8819 57.0441 81.9518 56.9577 82.0212C56.8031 82.1453 56.6247 82.2675 56.3553 82.4059C55.2797 82.9636 54.5587 83.0672 53.2202 83.2285C52.5131 83.3162 51.3658 83.36 50.2046 83.36H50.087C48.88 83.36 47.6869 83.3162 46.9519 83.2285C45.6134 83.0672 44.8924 82.9636 43.8188 82.4059C43.4718 82.2282 43.2753 82.0831 43.0872 81.9216C43.0303 81.8729 42.9742 81.8226 42.915 81.7695C42.845 81.7068 42.7707 81.6402 42.6854 81.5673C42.4528 81.3692 42.1231 81.3448 41.6618 81.3107C41.3719 81.2893 41.03 81.264 40.6277 81.1893C39.9648 81.0664 39.1377 80.8094 38.1082 80.2149C37.2696 79.7309 36.5486 79.217 36.2996 78.0856C36.1224 77.3208 36.0925 75.072 36.1821 74.2494C36.3733 72.5304 36.8872 71.2377 37.8134 69.945C37.9512 69.7526 38.0647 69.643 38.1564 69.5543C38.3591 69.3584 38.4561 69.2646 38.4767 68.6065L38.4776 68.5886C38.4913 68.3133 38.5078 67.9835 38.5643 67.7262C38.5909 67.6085 38.6433 67.4909 38.6935 67.3785C38.7562 67.2377 38.8153 67.1052 38.8153 66.9912C38.82 66.886 38.7925 66.7911 38.7552 66.6628C38.683 66.4143 38.5745 66.0408 38.5942 65.2264C38.5978 65.0989 38.6025 64.9606 38.6074 64.8144L38.6074 64.8139C38.6435 63.7482 38.6937 62.2626 38.4468 61.436C38.4065 61.3036 38.3662 61.1656 38.3253 61.0256C38.2167 60.6537 38.1041 60.2681 37.9767 59.9381C37.8759 59.6869 37.7651 59.4711 37.6575 59.2616C37.5441 59.0408 37.4343 58.8268 37.3433 58.5857C37.0041 57.7054 36.8776 56.5145 36.7679 55.4823C36.7585 55.3935 36.7491 55.3057 36.7398 55.2195C36.6961 54.7986 36.6626 54.3414 36.6286 53.8778C36.5712 53.0952 36.5125 52.2945 36.4012 51.6203C36.3465 51.299 36.2839 50.8379 36.2178 50.3506L36.2178 50.3505C36.1055 49.5237 35.9829 48.6211 35.8714 48.1963C35.8153 47.9584 35.7455 47.7579 35.6759 47.5582L35.6759 47.5582C35.5824 47.2897 35.4894 47.0227 35.4312 46.6686C35.3479 46.2007 35.2502 45.7569 35.1562 45.3303C34.967 44.4712 34.7932 43.6819 34.7838 42.906L34.6803 41.8623C34.6803 41.8623 36.6382 44.4357 40.1399 42.4061C40.7434 42.6869 41.8747 42.8781 42.2293 42.4658C40.7521 42.0591 39.8149 41.2283 38.9726 40.4816L38.9725 40.4816C38.1111 39.718 37.349 39.0424 36.21 38.9981C35.2387 38.9595 34.4291 39.4854 33.5274 40.0712C32.7076 40.6037 31.8117 41.1857 30.6488 41.4381C29.0155 41.7906 28.4718 41.8782 26.705 41.7169C25.4103 41.5994 24.028 41.4082 22.7612 41.201C20.0842 40.468 19.142 40.2031 16.9491 38.2033C16.3893 37.6991 15.9985 37.2121 15.6613 36.7917C15.3697 36.4283 15.1181 36.1147 14.8317 35.8829C13.947 35.1725 13.7974 34.9074 13.5291 34.432C13.3867 34.1797 13.2109 33.868 12.8738 33.399C12.2264 32.4888 12.0352 30.9889 12.4913 29.7998C12.7417 29.1327 13.6405 28.6294 14.427 28.1888C14.6104 28.0861 14.7877 27.9868 14.9493 27.8897C16.8486 26.7432 17.6722 26.6822 18.9781 26.5856C19.3306 26.5595 19.7183 26.5308 20.1718 26.4775C23.2611 26.1323 24.4851 26.6456 27.0025 27.7013C27.1584 27.7667 27.3193 27.8341 27.4858 27.9036C27.9197 28.0919 28.2272 28.2894 28.5676 28.508L28.5678 28.5082C28.6773 28.5785 28.7903 28.6511 28.9119 28.7262C29.4568 29.0649 29.9506 29.4207 30.4115 29.7528C30.81 30.04 31.184 30.3095 31.5451 30.5348L31.6072 30.5746C32.4316 31.1032 33.6494 31.8841 34.7838 31.21C35.0707 31.0455 35.1794 30.6253 35.3089 30.125C35.4114 29.729 35.5268 29.2829 35.7539 28.8736C35.8029 28.7872 35.8657 28.7049 35.9276 28.6236C36.0343 28.4837 36.1385 28.347 36.1662 28.1984L36.148 28.1987C36.6385 24.5901 37.5054 22.9503 39.7936 20.7381C39.8426 20.734 39.8845 20.727 39.9188 20.7171C39.9793 20.7007 40.0467 20.6389 40.1431 20.5504L40.1432 20.5504C40.4687 20.2517 41.1249 19.6495 42.9643 19.4682C43.2889 18.8667 43.3766 18.7791 44.1554 18.4982C44.2943 18.445 44.5464 18.3753 44.8123 18.3018C45.0537 18.2351 45.3063 18.1653 45.4959 18.1018C45.6273 18.058 45.701 17.9544 45.7309 17.809C45.7696 17.5754 46.0484 17.3882 46.2763 17.2352C46.3068 17.2148 46.3363 17.1949 46.3643 17.1756C47.5853 16.353 48.6589 16.8091 49.6309 17.323C49.7922 17.4127 49.9396 17.4405 50.087 17.4405C50.2324 17.4405 50.3798 17.4127 50.5432 17.323C51.5132 16.8091 52.5868 16.353 53.8078 17.1756L53.8508 17.2036C54.0958 17.3622 54.3998 17.559 54.4412 17.809C54.4571 17.9544 54.5288 18.058 54.6762 18.1018C54.91 18.1883 55.2447 18.2797 55.5321 18.3581C55.7343 18.4132 55.913 18.462 56.0167 18.4982C56.7816 18.7791 56.8831 18.8667 57.2078 19.4682C59.065 19.6513 59.7257 20.2634 60.0447 20.559C60.1353 20.6429 60.1983 20.7012 60.2533 20.7171C60.2863 20.7266 60.3264 20.7334 60.3731 20.7376ZM57.7543 74.0956C57.3603 73.6907 56.7302 73.6468 56.2995 74.0063C52.6434 77.0075 47.3668 76.9696 43.7463 73.9241C43.3131 73.5583 42.6747 73.5853 42.2749 73.9845C41.8124 74.4463 41.838 75.2191 42.3409 75.6406C46.7582 79.3541 53.1866 79.4003 57.6646 75.7506C58.1734 75.3443 58.2178 74.572 57.7543 74.0956ZM51.759 67.9346L50.6233 66.7675C50.322 66.4579 49.8317 66.4544 49.526 66.7597L48.3736 67.9103C48.0052 68.2782 48.0784 68.9173 48.5436 69.1651C49.4895 69.6686 50.6258 69.6767 51.5866 69.1869C52.0319 68.9457 52.1221 68.3078 51.759 67.9346ZM54.6408 70.896C54.2622 70.507 53.6632 70.4633 53.2173 70.7833C51.3086 72.1335 48.7559 72.1152 46.8668 70.7377C46.4254 70.4192 45.826 70.4464 45.4419 70.83L45.434 70.8378C44.9637 71.3075 44.989 72.1118 45.5232 72.502C48.1863 74.4842 51.8363 74.5104 54.5354 72.5667C55.0752 72.1764 55.112 71.3803 54.6408 70.896Z" fill="white"/>
</g>
<defs>
<filter id="filter0_d_711_2" x="5.64181" y="16.7241" width="88.8885" height="79.8346" filterUnits="userSpaceOnUse" color-interpolation-filters="sRGB">
<feFlood flood-opacity="0" result="BackgroundImageFix"/>
<feColorMatrix in="SourceAlpha" type="matrix" values="0 0 0 0 0 0 0 0 0 0 0 0 0 0 0 0 0 0 127 0" result="hardAlpha"/>
<feOffset dy="6.5994"/>
<feGaussianBlur stdDeviation="3.2997"/>
<feComposite in2="hardAlpha" operator="out"/>
<feColorMatrix type="matrix" values="0 0 0 0 0 0 0 0 0 0 0 0 0 0 0 0 0 0 0.25 0"/>
<feBlend mode="normal" in2="BackgroundImageFix" result="effect1_dropShadow_711_2"/>
<feBlend mode="normal" in="SourceGraphic" in2="effect1_dropShadow_711_2" result="shape"/>
</filter>
</defs>
</svg>
