<svg width="100" height="100" viewBox="0 0 77 67" fill="none" xmlns="http://www.w3.org/2000/svg">
<path d="M26.009 41.763C26.6753 58.0671 49.9425 58.054 50.5957 41.763C49.9294 25.459 26.6753 25.459 26.009 41.763ZM45.0696 36.8509L39.2299 42.6906C39.1078 42.8117 38.963 42.9075 38.8039 42.9725C38.6447 43.0375 38.4743 43.0705 38.3023 43.0695C38.0557 43.0595 37.817 42.9798 37.6138 42.8397C37.4106 42.6996 37.2512 42.5048 37.1541 42.2779C37.0571 42.0509 37.0263 41.8012 37.0653 41.5574C37.1044 41.3137 37.2117 41.0861 37.3748 40.9008L43.2144 35.0612C43.4628 34.8765 43.7687 34.786 44.0775 34.8059C44.3864 34.8257 44.6782 34.9545 44.9009 35.1694C45.1237 35.3843 45.2629 35.6713 45.2937 35.9792C45.3246 36.2872 45.2452 36.5961 45.0696 36.8509Z" fill="#7C91A9"/>
<path d="M73.2619 28.2809C72.9514 25.3082 71.5491 22.5564 69.3264 20.5582C67.1037 18.5599 64.2187 17.4573 61.2299 17.4638H53.2085V11.7417H64.104C66.8487 11.7212 69.4752 10.6217 71.416 8.68088C73.3569 6.74001 74.4564 4.11352 74.4769 1.36879C74.4769 1.02231 74.3392 0.690017 74.0942 0.445017C73.8492 0.200018 73.5169 0.0623779 73.1705 0.0623779H3.4342C3.08772 0.0623779 2.75543 0.200018 2.51043 0.445017C2.26543 0.690017 2.12779 1.02231 2.12779 1.36879C2.1483 4.11352 3.24774 6.74001 5.18861 8.68088C7.12948 10.6217 9.75597 11.7212 12.5007 11.7417H23.3962V17.4638H15.3748C12.3839 17.4576 9.49725 18.5621 7.27426 20.563C5.05126 22.5639 3.65025 25.3189 3.34275 28.2939L0.416392 59.687C0.33444 60.4895 0.421136 61.3002 0.670919 62.0672C0.920702 62.8341 1.32806 63.5404 1.86684 64.1407C2.40563 64.741 3.06395 65.2221 3.79957 65.553C4.53519 65.8839 5.33187 66.0574 6.13848 66.0623H70.427C71.2357 66.0665 72.0362 65.9005 72.7765 65.5749C73.5168 65.2493 74.1802 64.7715 74.7236 64.1726C75.2671 63.5737 75.6784 62.8671 75.9307 62.0988C76.183 61.3305 76.2708 60.5176 76.1883 59.7131L73.2619 28.2809ZM50.5957 11.7417V17.4638H26.009V11.7417H50.5957ZM23.3962 41.7892C24.2192 22.0101 52.3985 22.0232 53.2085 41.7892C52.3985 61.5291 24.2192 61.5421 23.3962 41.763V41.7892Z" fill="#7C91A9"/>
</svg>
