<svg width="91" height="91" viewBox="0 0 91 91" fill="none" xmlns="http://www.w3.org/2000/svg">
<path d="M41.8967 69.8528C58.637 69.8528 72.2077 56.2821 72.2077 39.5418C72.2077 22.8015 58.637 9.23083 41.8967 9.23083C25.1564 9.23083 11.5857 22.8015 11.5857 39.5418C11.5857 56.2821 25.1564 69.8528 41.8967 69.8528Z" fill="#E3E6E9"/>
<path d="M75.0273 82.5411C76.5845 82.5411 77.8469 81.2787 77.8469 79.7215C77.8469 78.1642 76.5845 76.9019 75.0273 76.9019C73.47 76.9019 72.2076 78.1642 72.2076 79.7215C72.2076 81.2787 73.47 82.5411 75.0273 82.5411Z" stroke="#1D2940" stroke-width="1.71863" stroke-linecap="round" stroke-linejoin="round"/>
<path d="M10.1758 58.5743C10.9544 58.5743 11.5856 57.9431 11.5856 57.1645C11.5856 56.3858 10.9544 55.7546 10.1758 55.7546C9.39719 55.7546 8.76599 56.3858 8.76599 57.1645C8.76599 57.9431 9.39719 58.5743 10.1758 58.5743Z" fill="#1D2940"/>
<path d="M55.2899 13.4603C56.0685 13.4603 56.6997 12.8291 56.6997 12.0504C56.6997 11.2718 56.0685 10.6406 55.2899 10.6406C54.5113 10.6406 53.8801 11.2718 53.8801 12.0504C53.8801 12.8291 54.5113 13.4603 55.2899 13.4603Z" fill="#1D2940"/>
<path d="M17.4081 71.2627L13.2491 75.4216" stroke="#1D2940" stroke-width="1.71863" stroke-linecap="round" stroke-linejoin="round"/>
<path d="M13.2491 71.2627L17.4081 75.4216" stroke="#1D2940" stroke-width="1.71863" stroke-linecap="round" stroke-linejoin="round"/>
<path d="M76.437 40.2468H65.1585C65.1585 37.6295 66.1983 35.1193 68.049 33.2686C69.8997 31.4179 72.4099 30.3781 75.0272 30.3781H86.3057C86.3057 32.9955 85.266 35.5056 83.4153 37.3564C81.5645 39.2071 79.0544 40.2468 76.437 40.2468Z" fill="#E7F2FE" stroke="#1D2940" stroke-width="1.71863" stroke-linecap="round" stroke-linejoin="round"/>
<path d="M8.76599 30.3781H20.0445C22.6618 30.3781 25.172 31.4178 27.0227 33.2685C28.8735 35.1193 29.9132 37.6294 29.9132 40.2467H18.6347C16.0173 40.2467 13.5072 39.207 11.6565 37.3563C9.80573 35.5055 8.76599 32.9954 8.76599 30.3781Z" fill="#E7F2FE" stroke="#1D2940" stroke-width="1.71863" stroke-linecap="round" stroke-linejoin="round"/>
<path d="M44.9559 36.2429L53.2738 31.7879L70.4313 22.4831C72.5554 21.3357 74.2554 19.537 75.281 17.3514L78.7492 9.99219L79.3695 16.8862C79.5693 18.9445 79.2159 21.0189 78.346 22.895C77.4761 24.7711 76.1211 26.381 74.421 27.5585L59.5193 37.6386" fill="#2C3B69"/>
<path d="M44.9559 36.2429L53.2738 31.7879L70.4313 22.4831C72.5554 21.3357 74.2554 19.537 75.281 17.3514L78.7492 9.99219L79.3695 16.8862C79.5693 18.9445 79.2159 21.0189 78.346 22.895C77.4761 24.7711 76.1211 26.381 74.421 27.5585L59.5193 37.6386" stroke="#1D2940" stroke-width="1.71863" stroke-linecap="round" stroke-linejoin="round"/>
<path d="M49.8057 36.2429L41.4877 31.7879L24.2739 22.4831C22.1498 21.3357 20.4498 19.537 19.4242 17.3514L15.9983 9.99219L15.3921 16.8862C15.1863 18.9451 15.5369 21.0216 16.4073 22.8988C17.2778 24.776 18.6361 26.3852 20.3405 27.5585L35.2141 37.6668" fill="#2C3B69"/>
<path d="M49.8057 36.2429L41.4877 31.7879L24.2739 22.4831C22.1498 21.3357 20.4498 19.537 19.4242 17.3514L15.9983 9.99219L15.3921 16.8862C15.1863 18.9451 15.5369 21.0216 16.4073 22.8988C17.2778 24.776 18.6361 26.3852 20.3405 27.5585L35.2141 37.6668" stroke="#1D2940" stroke-width="1.71863" stroke-linecap="round" stroke-linejoin="round"/>
<path d="M58.1095 78.3117L60.2101 65.7503C60.6738 62.9193 62.0152 60.3056 64.0448 58.2783C65.6976 56.6251 66.9011 54.5773 67.5411 52.3289L68.8099 41.1208C68.9929 39.5039 68.8542 37.8668 68.4017 36.3037C67.9492 34.7407 67.192 33.2826 66.1736 32.0134L61.0419 25.6129C60.576 24.9167 59.9473 24.3448 59.2102 23.9467C58.4731 23.5487 57.6501 23.3367 56.8124 23.329H38.2875C37.4498 23.3367 36.6268 23.5487 35.8897 23.9467C35.1526 24.3448 34.5239 24.9167 34.058 25.6129L28.9263 32.0134C27.9079 33.2826 27.1507 34.7407 26.6982 36.3037C26.2457 37.8668 26.107 39.5039 26.29 41.1208L27.5588 52.3993C28.1988 54.6478 29.4022 56.6956 31.0551 58.3488C33.0847 60.3761 34.4261 62.9898 34.8898 65.8208L36.9622 78.3117H58.1095Z" fill="#E7F2FE" stroke="#1D2940" stroke-width="1.71863" stroke-linecap="round" stroke-linejoin="round"/>
<path d="M62.3389 75.9572C62.3206 76.8404 62.1285 77.7113 61.7735 78.5202C61.4185 79.3291 60.9076 80.0601 60.27 80.6715C59.6324 81.2829 58.8806 81.7627 58.0576 82.0835C57.2345 82.4043 56.3563 82.5598 55.4731 82.5411C52.7959 82.1537 50.0988 81.9184 47.3949 81.8361C44.8453 81.9159 42.3029 82.1513 39.7819 82.5411C38.0433 82.6065 36.3498 81.9786 35.0741 80.7954C33.7984 79.6123 33.045 77.9708 32.9796 76.2321C32.9141 74.4935 33.5421 72.8 34.7252 71.5243C35.9084 70.2487 37.5498 69.4952 39.2885 69.4298C40.4868 67.2164 43.7576 65.6233 47.6346 65.6233C51.5116 65.6233 54.7823 67.2164 55.9807 69.4298C57.6686 69.5147 59.262 70.2347 60.4412 71.4453C61.6205 72.6559 62.2984 74.2677 62.3389 75.9572Z" fill="#F7C397" stroke="#1D2940" stroke-width="2.0108" stroke-linecap="round" stroke-linejoin="round"/>
<path d="M56.6996 75.4922V76.902" stroke="#1D2940" stroke-width="2.0108" stroke-linecap="round" stroke-linejoin="round"/>
<path d="M38.3721 75.4922V76.902" stroke="#1D2940" stroke-width="2.0108" stroke-linecap="round" stroke-linejoin="round"/>
<path d="M67.9782 37.4271C65.9796 37.4004 64.0103 37.9093 62.2748 38.901C60.5394 39.8927 59.1012 41.331 58.1095 43.0664H63.7488L60.9291 45.886" stroke="#1D2940" stroke-width="2.0108" stroke-linecap="round" stroke-linejoin="round"/>
<path d="M27.0936 37.4271C29.0922 37.4004 31.0615 37.9093 32.7969 38.901C34.5324 39.8927 35.9706 41.331 36.9623 43.0664H31.323L34.1426 45.886" stroke="#1D2940" stroke-width="2.0108" stroke-linecap="round" stroke-linejoin="round"/>
<path d="M55.2898 50.1155L52.4702 59.9842" stroke="#1D2940" stroke-width="1.71863" stroke-linecap="round" stroke-linejoin="round"/>
</svg>
