<svg width="143" height="139" viewBox="0 0 143 139" fill="none" xmlns="http://www.w3.org/2000/svg">
<g filter="url(#filter0_d_552_867)">
<path d="M123.625 49.2291V31.8541C123.625 30.318 123.015 28.8449 121.929 27.7587C120.843 26.6727 119.369 26.0625 117.833 26.0625H25.1666C23.6305 26.0625 22.1574 26.6727 21.0713 27.7587C19.9852 28.8449 19.375 30.318 19.375 31.8541V49.2291H123.625Z" fill="#00CF66"/>
<path d="M13.5834 55.0209V43.4375C13.5834 41.9015 14.1936 40.4284 15.2798 39.3422C16.3659 38.2562 17.839 37.6459 19.375 37.6459H123.625C125.161 37.6459 126.634 38.2562 127.72 39.3422C128.806 40.4284 129.417 41.9015 129.417 43.4375V55.0209H13.5834Z" fill="#00B157"/>
<path d="M129.417 49.2291H13.5831C10.3845 49.2291 7.79156 51.822 7.79156 55.0206V107.146C7.79156 110.345 10.3845 112.937 13.5831 112.937H129.417C132.615 112.937 135.208 110.345 135.208 107.146V55.0206C135.208 51.822 132.615 49.2291 129.417 49.2291Z" fill="#00CF66"/>
<path d="M71.5 104.25C84.2945 104.25 94.6666 93.8779 94.6666 81.0834C94.6666 68.2889 84.2945 57.9168 71.5 57.9168C58.7055 57.9168 48.3334 68.2889 48.3334 81.0834C48.3334 93.8779 58.7055 104.25 71.5 104.25Z" fill="#FAC100"/>
<path d="M132.313 46.8403V43.4375C132.31 41.643 131.751 39.8933 130.714 38.4286C129.677 36.9639 128.213 35.856 126.521 35.2569V31.8541C126.518 29.5508 125.602 27.3425 123.974 25.7138C122.345 24.0852 120.137 23.1691 117.833 23.1666H25.1666C22.8633 23.1691 20.6551 24.0852 19.0264 25.7138C17.3977 27.3425 16.4816 29.5508 16.4791 31.8541V35.2569C14.7875 35.856 13.3227 36.9639 12.2858 38.4286C11.2489 39.8933 10.6906 41.643 10.6875 43.4375V46.8403C8.99589 47.4394 7.53115 48.5474 6.49422 50.012C5.45728 51.4767 4.89898 53.2264 4.89594 55.0209V107.146C4.89846 109.449 5.81453 111.657 7.44322 113.286C9.07191 114.915 11.2801 115.831 13.5834 115.833H129.417C131.72 115.831 133.928 114.915 135.557 113.286C137.185 111.657 138.102 109.449 138.104 107.146V55.0209C138.101 53.2264 137.543 51.4767 136.506 50.012C135.469 48.5474 134.004 47.4394 132.313 46.8403ZM25.1666 28.9584H117.833C118.601 28.9592 119.337 29.2646 119.88 29.8076C120.423 30.3506 120.729 31.0866 120.729 31.8543V34.75H22.2709V31.8541C22.2719 31.0863 22.5773 30.3503 23.1201 29.8076C23.6629 29.2646 24.3989 28.9592 25.1666 28.9584ZM19.375 40.5416H123.625C124.393 40.5424 125.129 40.8478 125.672 41.3908C126.215 41.9337 126.52 42.6697 126.521 43.4375V46.3334H16.4791V43.4375C16.48 42.6697 16.7853 41.9337 17.3282 41.3908C17.8712 40.8478 18.6072 40.5424 19.375 40.5416ZM132.313 107.146C132.311 107.914 132.006 108.65 131.463 109.193C130.92 109.735 130.184 110.041 129.417 110.042H13.5834C12.8157 110.041 12.0797 109.735 11.5368 109.193C10.9939 108.65 10.6885 107.914 10.6875 107.146V55.0209C10.6884 54.2532 10.9937 53.5172 11.5367 52.9742C12.0796 52.4312 12.8157 52.1258 13.5834 52.125H129.417C130.184 52.1258 130.92 52.4312 131.463 52.9742C132.006 53.5172 132.312 54.2532 132.313 55.0209V107.146Z" fill="black"/>
<path d="M42.5416 98.4584H30.5922C30.0709 96.4565 29.0248 94.63 27.562 93.1672C26.0993 91.7045 24.2728 90.6587 22.2709 90.1372V72.0292C24.2727 71.5076 26.0991 70.4616 27.5619 68.9989C29.0246 67.5361 30.0707 65.7098 30.5922 63.7079H42.5418C43.305 63.7006 44.0345 63.3922 44.5715 62.85C45.1084 62.3076 45.4098 61.5754 45.4098 60.8122C45.4098 60.0488 45.1084 59.3166 44.5715 58.7742C44.0345 58.2321 43.305 57.9237 42.5418 57.9163H28.0625C27.6822 57.9163 27.3056 57.9912 26.9542 58.1368C26.6028 58.2823 26.2836 58.4957 26.0147 58.7647C25.7458 59.0335 25.5324 59.3527 25.3869 59.7043C25.2414 60.0556 25.1665 60.4322 25.1666 60.8125C25.1649 62.348 24.5542 63.8203 23.4684 64.906C22.3827 65.9916 20.9105 66.6025 19.375 66.6041C18.6069 66.6041 17.8703 66.9092 17.3273 67.4522C16.7842 67.9954 16.4791 68.732 16.4791 69.5V92.6666C16.4791 93.0469 16.554 93.4235 16.6995 93.7748C16.8451 94.1261 17.0584 94.4454 17.3273 94.7144C17.5962 94.9832 17.9154 95.1966 18.2668 95.3421C18.6181 95.4876 18.9947 95.5625 19.375 95.5625C20.9106 95.5641 22.3828 96.1747 23.4686 97.2604C24.5544 98.3463 25.165 99.8186 25.1666 101.354C25.1666 102.122 25.4717 102.859 26.0148 103.402C26.5578 103.945 27.2944 104.25 28.0625 104.25H42.5416C42.9241 104.254 43.3039 104.182 43.6585 104.038C44.013 103.894 44.3355 103.681 44.6073 103.412C44.8793 103.143 45.0951 102.822 45.2423 102.469C45.3897 102.116 45.4655 101.737 45.4655 101.354C45.4655 100.972 45.3897 100.593 45.2423 100.24C45.0951 99.8864 44.8793 99.5658 44.6073 99.2965C44.3355 99.0275 44.013 98.8146 43.6585 98.6707C43.3039 98.5269 42.9241 98.4546 42.5416 98.4584Z" fill="black"/>
<path d="M123.625 66.6041C122.089 66.6025 120.617 65.9916 119.532 64.906C118.446 63.8203 117.835 62.348 117.833 60.8125C117.833 60.0445 117.528 59.3079 116.985 58.7647C116.442 58.2217 115.706 57.9166 114.938 57.9166H100.458C100.076 57.9128 99.6961 57.985 99.3415 58.1289C98.987 58.2728 98.6645 58.4856 98.3927 58.7547C98.1207 59.024 97.9048 59.3446 97.7577 59.6978C97.6103 60.0507 97.5345 60.4297 97.5345 60.8125C97.5345 61.195 97.6103 61.574 97.7577 61.927C97.9048 62.2802 98.1207 62.6008 98.3927 62.8701C98.6645 63.1391 98.987 63.352 99.3415 63.4959C99.6961 63.6398 100.076 63.712 100.458 63.7082H112.408C112.93 65.7101 113.976 67.5364 115.438 68.9991C116.901 70.4619 118.727 71.5079 120.729 72.0294V90.1374C118.727 90.659 116.901 91.7047 115.438 93.1675C113.975 94.6302 112.929 96.4568 112.408 98.4587H100.458C100.076 98.4549 99.6961 98.5271 99.3415 98.671C98.987 98.8149 98.6645 99.0277 98.3927 99.2968C98.1207 99.5661 97.9048 99.8867 97.7577 100.24C97.6103 100.593 97.5345 100.972 97.5345 101.355C97.5345 101.737 97.6103 102.116 97.7577 102.469C97.9048 102.822 98.1207 103.143 98.3927 103.412C98.6645 103.681 98.987 103.894 99.3415 104.038C99.6961 104.182 100.076 104.254 100.458 104.25H114.938C115.706 104.25 116.442 103.945 116.985 103.402C117.528 102.859 117.833 102.122 117.833 101.354C117.835 99.8188 118.446 98.3466 119.531 97.2606C120.617 96.1747 122.089 95.5641 123.625 95.5625C124.393 95.5625 125.13 95.2574 125.673 94.7144C126.216 94.1712 126.521 93.4346 126.521 92.6666V69.5C126.521 68.732 126.216 67.9954 125.673 67.4522C125.13 66.9092 124.393 66.6041 123.625 66.6041Z" fill="black"/>
<path d="M71.5 55.0209C66.3453 55.0209 61.3063 56.5494 57.0204 59.4133C52.7345 62.2772 49.3941 66.3475 47.4215 71.1096C45.4489 75.872 44.9325 81.1122 45.9384 86.1681C46.944 91.2236 49.4261 95.8674 53.0711 99.5123C56.716 103.157 61.3598 105.639 66.4154 106.645C71.4712 107.651 76.7114 107.135 81.4738 105.162C86.2359 103.189 90.3063 99.849 93.1702 95.5631C96.034 91.2771 97.5625 86.2381 97.5625 81.0834C97.5546 74.1736 94.8061 67.5491 89.9202 62.6632C85.0343 57.7773 78.4098 55.0288 71.5 55.0209ZM71.5 101.354C67.4907 101.354 63.5716 100.166 60.238 97.938C56.9045 95.7107 54.3064 92.5447 52.7722 88.8408C51.2378 85.1367 50.8365 81.0609 51.6187 77.1287C52.4008 73.1965 54.3313 69.5847 57.1662 66.7496C60.0013 63.9148 63.6131 61.9842 67.5453 61.2021C71.4775 60.4199 75.5533 60.8212 79.2574 62.3556C82.9613 63.8898 86.1273 66.4879 88.3546 69.8214C90.5821 73.155 91.7709 77.0741 91.7709 81.0834C91.7649 86.4577 89.6273 91.6102 85.827 95.4102C82.0268 99.2104 76.8743 101.348 71.5 101.354V101.354Z" fill="black"/>
<path d="M73.5459 78.7107C73.225 78.5877 72.9267 78.4758 72.6693 78.3615C72.3707 78.2301 72.0104 78.0914 71.613 77.9402C69.7069 77.2178 68.6041 76.6506 68.6041 75.9013C68.6041 75.688 68.9492 75.114 69.7804 74.6924C70.3997 74.3813 72.6465 73.525 75.5764 75.6793C76.1953 76.1283 76.9669 76.3143 77.7227 76.1967C78.4785 76.0789 79.1567 75.6668 79.6098 75.0505C80.0629 74.4345 80.2538 73.664 80.1406 72.9077C80.0276 72.1511 79.6198 71.4702 79.0066 71.0133C77.6274 69.9846 76.0615 69.2342 74.3957 68.8042V66.6052C74.3883 65.842 74.0799 65.1126 73.5378 64.5756C72.9954 64.0386 72.2632 63.7372 71.4997 63.7372C70.7366 63.7372 70.0044 64.0386 69.462 64.5756C68.9198 65.1126 68.6114 65.842 68.6041 66.6052V68.9375C68.1097 69.0958 67.6287 69.2923 67.1652 69.5258C64.48 70.8846 62.8117 73.3266 62.8117 75.9022C62.8117 80.7946 67.3675 82.5264 69.5565 83.3566C69.8464 83.4652 70.1108 83.5645 70.3313 83.662C70.6693 83.8105 71.0594 83.9606 71.478 84.1216C73.7134 84.9757 74.3951 85.4437 74.3951 86.1225C74.3951 86.3358 74.0501 86.9098 73.2172 87.33C72.5979 87.6452 70.3511 88.4974 67.4226 86.3445C66.8039 85.8898 66.0296 85.6992 65.2705 85.8151C64.5112 85.9311 63.8292 86.3437 63.3742 86.9627C62.9195 87.5814 62.7292 88.3554 62.8448 89.1148C62.9608 89.8738 63.3737 90.5561 63.9924 91.0108C65.3729 92.0302 66.9391 92.7703 68.6033 93.1895V95.5625C68.6106 96.3257 68.919 97.0551 69.4612 97.5921C70.0036 98.1291 70.7358 98.4305 71.4989 98.4305C72.2624 98.4305 72.9945 98.1291 73.537 97.5921C74.0791 97.0551 74.3875 96.3257 74.3949 95.5625V93.0725C74.8881 92.9188 75.3684 92.7263 75.8316 92.4972C78.519 91.1373 80.1875 88.694 80.1875 86.1214C80.1875 81.2474 75.701 79.5335 73.5459 78.7107Z" fill="black"/>
<path d="M64.361 69.7602V69.7602C65.2855 69.7628 66.1937 70.0034 66.9981 70.4588C67.8025 70.9143 68.4761 71.5693 68.9539 72.3607L68.9546 72.3618L68.9892 72.4193L69.3767 73.063L68.8662 73.6143L67.2235 75.3888L66.1487 76.5497L65.5612 75.0808L64.832 73.2577C63.8066 73.2289 62.8051 72.9346 61.926 72.4021C60.998 71.84 60.2421 71.0343 59.7403 70.0724L58.0992 66.9266L61.1415 68.7525L61.5304 68.9858L64.361 69.7602ZM64.361 69.7602H64.3583M64.361 69.7602H64.3583M64.3583 69.7602L64.3275 69.7602M64.3583 69.7602L64.3275 69.7602M64.3275 69.7602C64.3275 69.7602 64.3275 69.7602 64.3275 69.7602M64.3275 69.7602L64.3275 69.7602M64.3275 69.7602C64.3274 69.7602 64.3274 69.7602 64.3273 69.7602M64.3275 69.7602H64.3273M64.3273 69.7602C63.3423 69.76 62.3758 69.4924 61.5309 68.9862L64.3273 69.7602Z" fill="#FAC100" stroke="black" stroke-width="2"/>
<mask id="path-11-outside-1_552_867" maskUnits="userSpaceOnUse" x="52.4922" y="64.1753" width="42" height="41" fill="black">
<rect fill="white" x="52.4922" y="64.1753" width="42" height="41"/>
<path d="M90.8956 75.2598H83.2958C82.0263 75.2602 80.7651 75.0555 79.5609 74.6537L76.7641 73.7214C76.6343 73.6781 76.5188 73.6001 76.4301 73.4959C76.3414 73.3917 76.283 73.2652 76.261 73.1301C76.2391 72.995 76.2546 72.8565 76.3057 72.7296C76.3569 72.6027 76.4418 72.4922 76.5513 72.41L78.8598 70.6786C78.981 70.5873 79.0794 70.4691 79.1473 70.3333C79.2151 70.1976 79.2507 70.048 79.251 69.8962V67.1753L77.0686 67.6119C76.8247 67.6603 76.6085 67.8001 76.4643 68.0026L73.1119 72.696C73.0425 72.7931 72.951 72.8723 72.8448 72.9269C72.7387 72.9815 72.621 73.01 72.5017 73.01H70.1073L55.4922 88.7943L57.8634 91.7583H66.692C66.8794 91.7584 67.06 91.8286 67.1982 91.9552C68.1378 92.8032 69.3612 93.2681 70.6268 93.2582C71.1654 93.2586 71.7009 93.1757 72.2141 93.0126C72.3424 92.9718 72.4794 92.9662 72.6105 92.9966C72.7417 93.0269 72.8623 93.092 72.9596 93.185C73.5381 93.7393 73.9799 94.4203 74.2502 95.1744L76.763 102.21C79.4971 101.426 82.0438 100.095 84.2491 98.2987C86.4544 96.5021 88.2725 94.277 89.5935 91.7578C90.9145 89.2387 91.711 86.4779 91.9348 83.6422C92.1586 80.8065 91.8051 77.955 90.8956 75.2598ZM71.0018 82.0092C70.7051 82.0092 70.4152 81.9212 70.1685 81.7564C69.9219 81.5916 69.7296 81.3573 69.6161 81.0833C69.5026 80.8092 69.4729 80.5076 69.5307 80.2167C69.5886 79.9258 69.7315 79.6585 69.9412 79.4487C70.151 79.239 70.4182 79.0961 70.7092 79.0383C71.0001 78.9804 71.3017 79.0101 71.5758 79.1236C71.8498 79.2371 72.0841 79.4294 72.2489 79.676C72.4137 79.9227 72.5017 80.2127 72.5017 80.5093C72.5017 80.9071 72.3436 81.2886 72.0624 81.5699C71.7811 81.8512 71.3996 82.0092 71.0018 82.0092Z"/>
</mask>
<path d="M90.8956 75.2598H83.2958C82.0263 75.2602 80.7651 75.0555 79.5609 74.6537L76.7641 73.7214C76.6343 73.6781 76.5188 73.6001 76.4301 73.4959C76.3414 73.3917 76.283 73.2652 76.261 73.1301C76.2391 72.995 76.2546 72.8565 76.3057 72.7296C76.3569 72.6027 76.4418 72.4922 76.5513 72.41L78.8598 70.6786C78.981 70.5873 79.0794 70.4691 79.1473 70.3333C79.2151 70.1976 79.2507 70.048 79.251 69.8962V67.1753L77.0686 67.6119C76.8247 67.6603 76.6085 67.8001 76.4643 68.0026L73.1119 72.696C73.0425 72.7931 72.951 72.8723 72.8448 72.9269C72.7387 72.9815 72.621 73.01 72.5017 73.01H70.1073L55.4922 88.7943L57.8634 91.7583H66.692C66.8794 91.7584 67.06 91.8286 67.1982 91.9552C68.1378 92.8032 69.3612 93.2681 70.6268 93.2582C71.1654 93.2586 71.7009 93.1757 72.2141 93.0126C72.3424 92.9718 72.4794 92.9662 72.6105 92.9966C72.7417 93.0269 72.8623 93.092 72.9596 93.185C73.5381 93.7393 73.9799 94.4203 74.2502 95.1744L76.763 102.21C79.4971 101.426 82.0438 100.095 84.2491 98.2987C86.4544 96.5021 88.2725 94.277 89.5935 91.7578C90.9145 89.2387 91.711 86.4779 91.9348 83.6422C92.1586 80.8065 91.8051 77.955 90.8956 75.2598ZM71.0018 82.0092C70.7051 82.0092 70.4152 81.9212 70.1685 81.7564C69.9219 81.5916 69.7296 81.3573 69.6161 81.0833C69.5026 80.8092 69.4729 80.5076 69.5307 80.2167C69.5886 79.9258 69.7315 79.6585 69.9412 79.4487C70.151 79.239 70.4182 79.0961 70.7092 79.0383C71.0001 78.9804 71.3017 79.0101 71.5758 79.1236C71.8498 79.2371 72.0841 79.4294 72.2489 79.676C72.4137 79.9227 72.5017 80.2127 72.5017 80.5093C72.5017 80.9071 72.3436 81.2886 72.0624 81.5699C71.7811 81.8512 71.3996 82.0092 71.0018 82.0092Z" fill="#FAC100"/>
<path d="M90.8956 75.2598L92.7906 74.6203L92.3315 73.2598H90.8956V75.2598ZM83.2958 75.2598L83.2958 73.2598L83.2952 73.2598L83.2958 75.2598ZM79.5609 74.6537L80.1939 72.7565L80.1933 72.7563L79.5609 74.6537ZM76.7641 73.7214L76.1315 75.6187L76.1316 75.6188L76.7641 73.7214ZM76.5513 72.41L75.3513 70.8101L75.3512 70.8101L76.5513 72.41ZM78.8598 70.6786L80.0598 72.2786L80.0637 72.2757L78.8598 70.6786ZM79.251 69.8962L81.251 69.9012V69.8962H79.251ZM79.251 67.1753H81.251V64.7357L78.8588 65.2142L79.251 67.1753ZM77.0686 67.6119L77.4581 69.5736L77.4608 69.573L77.0686 67.6119ZM76.4643 68.0026L78.0918 69.1651L78.0934 69.1628L76.4643 68.0026ZM73.1119 72.696L74.7394 73.8585L74.7394 73.8584L73.1119 72.696ZM72.5017 73.01L72.5017 71.01H72.5017V73.01ZM70.1073 73.01V71.01H69.2335L68.6398 71.6512L70.1073 73.01ZM55.4922 88.7943L54.0247 87.4355L52.8548 88.699L53.9305 90.0437L55.4922 88.7943ZM57.8634 91.7583L56.3017 93.0077L56.9022 93.7583H57.8634V91.7583ZM66.692 91.7583L66.6927 89.7583H66.692V91.7583ZM67.1982 91.9552L65.8475 93.4302L65.8529 93.435L65.8582 93.4399L67.1982 91.9552ZM70.6268 93.2582L70.6283 91.2582L70.6197 91.2582L70.6111 91.2582L70.6268 93.2582ZM72.2141 93.0126L72.82 94.9186L72.8204 94.9185L72.2141 93.0126ZM72.9596 93.185L74.3432 91.7409L74.3414 91.7391L72.9596 93.185ZM74.2502 95.1744L76.1337 94.5018L76.1329 94.4995L74.2502 95.1744ZM76.763 102.21L74.8795 102.883L75.5106 104.65L77.3145 104.133L76.763 102.21ZM90.8956 73.2598H83.2958V77.2598H90.8956V73.2598ZM83.2952 73.2598C82.2411 73.2601 81.1938 73.0901 80.1939 72.7565L78.9278 76.5508C80.3363 77.0208 81.8115 77.2602 83.2964 77.2598L83.2952 73.2598ZM80.1933 72.7563L77.3965 71.824L76.1316 75.6188L78.9284 76.551L80.1933 72.7563ZM77.3967 71.8241C77.6131 71.8962 77.8056 72.0262 77.9534 72.1999L74.9068 74.7918C75.2319 75.174 75.6554 75.46 76.1315 75.6187L77.3967 71.8241ZM77.9534 72.1999C78.1012 72.3737 78.1987 72.5846 78.2352 72.8097L74.2869 73.4504C74.3672 73.9458 74.5816 74.4096 74.9068 74.7918L77.9534 72.1999ZM78.2352 72.8097C78.2717 73.0349 78.246 73.2658 78.1607 73.4773L74.4508 71.9818C74.2632 72.4472 74.2065 72.9551 74.2869 73.4504L78.2352 72.8097ZM78.1607 73.4773C78.0754 73.6889 77.9338 73.8731 77.7514 74.01L75.3512 70.8101C74.9498 71.1112 74.6384 71.5164 74.4508 71.9818L78.1607 73.4773ZM77.7513 74.01L80.0598 72.2786L77.6597 69.0786L75.3513 70.8101L77.7513 74.01ZM80.0637 72.2757C80.4315 71.9985 80.7301 71.6398 80.9361 71.2278L77.3584 69.4388C77.4287 69.2984 77.5305 69.1761 77.6559 69.0816L80.0637 72.2757ZM80.9361 71.2278C81.1421 70.8159 81.2499 70.3618 81.251 69.9012L77.2511 69.8911C77.2514 69.7341 77.2882 69.5793 77.3584 69.4388L80.9361 71.2278ZM81.251 69.8962V67.1753H77.251V69.8962H81.251ZM78.8588 65.2142L76.6763 65.6507L77.4608 69.573L79.6433 69.1365L78.8588 65.2142ZM76.6791 65.6502C75.9349 65.7979 75.2753 66.2244 74.8352 66.8424L78.0934 69.1628C77.9418 69.3757 77.7145 69.5227 77.4581 69.5736L76.6791 65.6502ZM74.8368 66.8401L71.4844 71.5335L74.7394 73.8584L78.0918 69.1651L74.8368 66.8401ZM71.4845 71.5335C71.6001 71.3715 71.7528 71.2396 71.9297 71.1485L73.7599 74.7052C74.1492 74.5049 74.4849 74.2146 74.7394 73.8585L71.4845 71.5335ZM71.9297 71.1485C72.1066 71.0575 72.3027 71.01 72.5017 71.01L72.5016 75.01C72.9393 75.01 73.3707 74.9055 73.7599 74.7052L71.9297 71.1485ZM72.5017 71.01H70.1073V75.01H72.5017V71.01ZM68.6398 71.6512L54.0247 87.4355L56.9598 90.1531L71.5748 74.3688L68.6398 71.6512ZM53.9305 90.0437L56.3017 93.0077L59.4252 90.5089L57.054 87.5449L53.9305 90.0437ZM57.8634 93.7583H66.692V89.7583H57.8634V93.7583ZM66.6913 93.7583C66.3789 93.7582 66.0779 93.6411 65.8475 93.4302L68.5489 90.4802C68.0421 90.0161 67.3799 89.7585 66.6927 89.7583L66.6913 93.7583ZM65.8582 93.4399C67.1693 94.6232 68.8764 95.272 70.6425 95.2581L70.6111 91.2582C69.8459 91.2642 69.1063 90.9831 68.5382 90.4705L65.8582 93.4399ZM70.6254 95.2582C71.37 95.2587 72.1103 95.1442 72.82 94.9186L71.6083 91.1065C71.2914 91.2073 70.9608 91.2584 70.6283 91.2582L70.6254 95.2582ZM72.8204 94.9185C72.6065 94.9865 72.3783 94.9957 72.1597 94.9451L73.0614 91.0481C72.5804 90.9368 72.0784 90.957 71.6079 91.1066L72.8204 94.9185ZM72.1597 94.9451C71.941 94.8945 71.74 94.786 71.5778 94.631L74.3414 91.7391C73.9845 91.3981 73.5423 91.1594 73.0614 91.0481L72.1597 94.9451ZM71.5759 94.6292C71.9307 94.9691 72.2017 95.3868 72.3675 95.8493L76.1329 94.4995C75.758 93.4538 75.1454 92.5094 74.3432 91.7409L71.5759 94.6292ZM72.3667 95.8471L74.8795 102.883L78.6465 101.538L76.1337 94.5018L72.3667 95.8471ZM77.3145 104.133C80.3086 103.274 83.0974 101.817 85.5123 99.8492L82.9859 96.7481C80.9902 98.3739 78.6856 99.5781 76.2114 100.288L77.3145 104.133ZM85.5123 99.8492C87.9273 97.8819 89.9182 95.4453 91.3648 92.6867L87.8223 90.829C86.6268 93.1087 84.9816 95.1223 82.9859 96.7481L85.5123 99.8492ZM91.3648 92.6867C92.8113 89.9281 93.6835 86.9048 93.9286 83.7996L89.941 83.4849C89.7385 86.051 89.0177 88.5494 87.8223 90.829L91.3648 92.6867ZM93.9286 83.7996C94.1737 80.6944 93.7866 77.5717 92.7906 74.6203L89.0006 75.8992C89.8236 78.3382 90.1435 80.9187 89.941 83.4849L93.9286 83.7996ZM71.0018 80.0092C71.1007 80.0092 71.1974 80.0385 71.2796 80.0935L69.0574 83.4193C69.6329 83.8039 70.3096 84.0092 71.0018 84.0092V80.0092ZM71.2796 80.0935C71.3619 80.1484 71.426 80.2265 71.4639 80.3179L67.7683 81.8487C68.0332 82.4882 68.4818 83.0348 69.0574 83.4193L71.2796 80.0935ZM71.4639 80.3179C71.5017 80.4093 71.5116 80.5099 71.4923 80.6069L67.5692 79.8265C67.4341 80.5054 67.5034 81.2091 67.7683 81.8487L71.4639 80.3179ZM71.4923 80.6069C71.473 80.7039 71.4254 80.793 71.3554 80.863L68.527 78.0345C68.0375 78.524 67.7042 79.1476 67.5692 79.8265L71.4923 80.6069ZM71.3554 80.863C71.2855 80.9329 71.1964 80.9805 71.0994 80.9998L70.319 77.0767C69.6401 77.2117 69.0165 77.5451 68.527 78.0345L71.3554 80.863ZM71.0994 80.9998C71.0023 81.0191 70.9018 81.0092 70.8104 80.9714L72.3411 77.2759C71.7016 77.011 70.9979 76.9417 70.319 77.0767L71.0994 80.9998ZM70.8104 80.9714C70.719 80.9335 70.6409 80.8694 70.5859 80.7872L73.9118 78.5649C73.5272 77.9893 72.9806 77.5408 72.3411 77.2759L70.8104 80.9714ZM70.5859 80.7872C70.531 80.7049 70.5017 80.6082 70.5017 80.5093H74.5017C74.5017 79.8171 74.2964 79.1404 73.9118 78.5649L70.5859 80.7872ZM70.5017 80.5093C70.5017 80.3767 70.5543 80.2495 70.6481 80.1557L73.4766 82.9841C74.1329 82.3277 74.5017 81.4375 74.5017 80.5093H70.5017ZM70.6481 80.1557C70.7419 80.0619 70.8691 80.0092 71.0018 80.0092V84.0092C71.93 84.0092 72.8202 83.6404 73.4766 82.9841L70.6481 80.1557Z" fill="black" mask="url(#path-11-outside-1_552_867)"/>
<path d="M72.5759 93.4536L72.9736 93.9317C73.3223 94.3508 73.5949 94.8278 73.7789 95.341L73.7794 95.3423L76.2399 102.232L76.6267 103.315L75.5006 103.548C74.0205 103.854 72.513 104.008 71.0016 104.007L72.5759 93.4536ZM72.5759 93.4536L71.9711 93.599M72.5759 93.4536L71.9711 93.599M71.9711 93.599C71.531 93.7048 71.0799 93.7582 70.6272 93.758L70.6212 93.758M71.9711 93.599L70.6212 93.758M70.6212 93.758C69.3178 93.7653 68.0531 93.3153 67.0471 92.4864L66.7701 92.2582M70.6212 93.758L66.7701 92.2582M66.7701 92.2582H66.4112M66.7701 92.2582H66.4112M66.4112 92.2582H57.623L54.833 88.7707L66.0951 76.6073L66.5244 76.1436L66.2899 75.5568L65.4153 73.3683L65.1849 72.7919L64.5661 72.7426C63.5795 72.6639 62.6331 72.317 61.8293 71.7394C61.0255 71.1618 60.395 70.3754 60.0058 69.4653L60.0055 69.4646L59.5377 68.3729L61.2734 69.4147L61.2739 69.415C62.1964 69.9679 63.2516 70.26 64.327 70.2603H64.3273H64.3569C65.1447 70.2629 65.9203 70.4557 66.6177 70.8223C67.3155 71.1892 67.9143 71.7193 68.3632 72.3674L69.0721 73.3911L69.8888 72.5101H72.1157H72.6303L72.9294 72.0914L76.0576 67.7119L76.0583 67.7108C76.2757 67.4056 76.6015 67.195 76.9691 67.122L76.9705 67.1217L79.7509 66.5656L79.7509 69.8938C79.7509 69.894 79.7509 69.8943 79.7509 69.8945C79.7502 70.1244 79.6964 70.3509 79.5936 70.5565C79.4909 70.7619 79.342 70.9408 79.1588 71.0792C79.1584 71.0794 79.1581 71.0797 79.1578 71.0799L77.9962 71.9512L76.4694 73.0964L78.28 73.6999L79.7185 74.1793M66.4112 92.2582L79.7185 74.1793M79.7185 74.1793C79.7186 74.1794 79.7187 74.1794 79.7188 74.1794C80.8721 74.5642 82.08 74.7602 83.2958 74.7599C83.2958 74.7599 83.2959 74.7599 83.296 74.7599H90.3219H91.8358M79.7185 74.1793L91.8358 74.7599M91.8358 74.7599L91.2416 73.3674M91.8358 74.7599L91.2416 73.3674M91.2416 73.3674C89.6816 69.7118 87.1606 66.5469 83.9463 64.2091M91.2416 73.3674L83.9463 64.2091M83.9463 64.2091C80.732 61.8712 76.9445 60.4476 72.9861 60.0895M83.9463 64.2091L72.9861 60.0895M72.9861 60.0895C69.0277 59.7314 65.0462 60.4522 61.4645 62.1753M72.9861 60.0895L61.4645 62.1753M61.4645 62.1753C57.8828 63.8983 54.8348 66.5594 52.6441 69.8757M61.4645 62.1753L52.6441 69.8757M52.6441 69.8757C50.4534 73.1921 49.2018 77.0399 49.0224 81.0104M52.6441 69.8757L49.0224 81.0104M49.0224 81.0104C48.843 84.981 49.7424 88.9259 51.6251 92.4263M49.0224 81.0104L51.6251 92.4263M51.6251 92.4263C53.5078 95.9268 56.3035 98.8518 59.7151 100.891M51.6251 92.4263L59.7151 100.891M59.7151 100.891C63.1267 102.93 67.0269 104.007 71.0014 104.007L59.7151 100.891ZM54.6867 88.9287L54.6867 88.9287L54.6867 88.9287ZM58.8744 67.9748L58.8745 67.9749L58.8744 67.9748ZM80.0009 66.2605L79.8671 65.5914L80.0009 66.2606L80.0009 66.2605Z" fill="#FAC100" stroke="black" stroke-width="2"/>
</g>
<defs>
<filter id="filter0_d_552_867" x="-2" y="0" width="147" height="147" filterUnits="userSpaceOnUse" color-interpolation-filters="sRGB">
<feFlood flood-opacity="0" result="BackgroundImageFix"/>
<feColorMatrix in="SourceAlpha" type="matrix" values="0 0 0 0 0 0 0 0 0 0 0 0 0 0 0 0 0 0 127 0" result="hardAlpha"/>
<feOffset dy="4"/>
<feGaussianBlur stdDeviation="2"/>
<feComposite in2="hardAlpha" operator="out"/>
<feColorMatrix type="matrix" values="0 0 0 0 0 0 0 0 0 0 0 0 0 0 0 0 0 0 0.25 0"/>
<feBlend mode="normal" in2="BackgroundImageFix" result="effect1_dropShadow_552_867"/>
<feBlend mode="normal" in="SourceGraphic" in2="effect1_dropShadow_552_867" result="shape"/>
</filter>
</defs>
</svg>
